<svg id="Layer_1" enable-background="new 0 0 512 512" height="512" viewBox="0 0 512 512" width="512" xmlns="http://www.w3.org/2000/svg"><g><circle cx="256" cy="256" fill="#4caf50" r="225"/><path d="m255.9 137.6c-50.7 0-124.9 29.3-124.9 101 0 78.2 80.6 96.7 107.9 102.3 15.8 3.2-7.7 36 11 33.2 17.7-2.7 117.7-62.6 129.7-125.1 11.8-61.2-51.8-111.4-123.7-111.4zm-46.9 131.2c-.9.9-2.3 1.4-4.1 1.4h-23.7c-2.4 0-4.1-.6-5.1-1.8s-1.6-3.2-1.6-5.9v-47.7c0-2.5.5-4.4 1.5-5.7s2.3-1.9 3.9-1.9 3 .6 4 1.9 1.5 3.2 1.5 5.7v45.1h19.5c1.8 0 3.1.5 4.1 1.5.9 1 1.4 2.2 1.4 3.7s-.5 2.8-1.4 3.7zm22.5-5.2c0 2.6-.5 4.5-1.5 5.8s-2.3 1.9-4 1.9c-1.6 0-2.9-.6-3.9-1.9s-1.5-3.2-1.5-5.7v-48.8c0-2.5.5-4.4 1.5-5.7s2.3-1.9 3.9-1.9 3 .6 4 1.9 1.5 3.2 1.5 5.7zm57.5-.5c0 5.4-2 8.2-5.9 8.2-1 0-1.9-.2-2.6-.5-.8-.3-1.5-.8-2.2-1.5s-1.3-1.5-1.9-2.5c-.6-.9-1.2-1.9-1.8-2.9l-20.5-36.1v36.3c0 2.4-.5 4.2-1.4 5.4-1 1.2-2.2 1.8-3.7 1.8s-2.8-.6-3.7-1.8-1.4-3-1.4-5.3v-47.8c0-2 .2-3.6.6-4.8.5-1.3 1.2-2.3 2.3-3.1s2.2-1.2 3.5-1.2c1 0 1.8.2 2.5.5.7.4 1.3.9 1.8 1.5s1.1 1.4 1.6 2.4 1.1 2 1.7 3.1l21 36.5v-36.9c0-2.4.4-4.2 1.3-5.4s2.1-1.8 3.6-1.8c1.6 0 2.8.6 3.7 1.8s1.4 3 1.4 5.4v48.7zm50.1 5.7c-.9.9-2.2 1.4-3.9 1.4h-27.5c-2.4 0-4.1-.6-5.1-1.8s-1.6-3.2-1.6-5.9v-46.6c0-1.8.2-3.3.7-4.4s1.2-2 2.2-2.5 2.3-.8 3.8-.8h26.6c1.7 0 3 .4 3.9 1.3s1.3 2.1 1.3 3.5c0 1.5-.4 2.6-1.3 3.5s-2.1 1.3-3.9 1.3h-22.4v15.2h21.6c1.7 0 2.9.4 3.7 1.3s1.2 2 1.2 3.4-.4 2.6-1.2 3.4c-.8.9-2.1 1.3-3.8 1.3h-21.6v17.6h23.2c1.7 0 3 .5 3.9 1.4s1.3 2.1 1.3 3.7c.2 1.6-.3 2.8-1.1 3.7z" fill="#fff"/></g></svg>