<svg height="512" viewBox="0 0 152 152" width="512" xmlns="http://www.w3.org/2000/svg" xmlns:xlink="http://www.w3.org/1999/xlink"><linearGradient id="linear-gradient" gradientUnits="userSpaceOnUse" x1="72.04" x2="80.24" y1="57.12" y2="65.33"><stop offset="0" stop-color="#b71c1c"/><stop offset="1" stop-color="#b71c1c" stop-opacity="0"/></linearGradient><linearGradient id="linear-gradient-2" x1="59.84" x2="65.19" xlink:href="#linear-gradient" y1="88.75" y2="94.11"/><linearGradient id="linear-gradient-3" x1="68.03" x2="69.94" xlink:href="#linear-gradient" y1="86.16" y2="88.08"/><linearGradient id="linear-gradient-4" x1="54.31" x2="82.04" xlink:href="#linear-gradient" y1="73.8" y2="101.53"/><linearGradient id="linear-gradient-5" x1="63.66" x2="123.05" xlink:href="#linear-gradient" y1="77.03" y2="136.42"/><linearGradient id="linear-gradient-6" x1="92.92" x2="101.5" xlink:href="#linear-gradient" y1="58.02" y2="66.6"/><linearGradient id="linear-gradient-7" x1="91.9" x2="150.21" xlink:href="#linear-gradient" y1="46.27" y2="104.57"/><g id="Layer_2" data-name="Layer 2"><g id="Color"><g id="_27.Sina_Weibo" data-name="27.Sina Weibo"><g id="Background"><circle cx="76" cy="76" fill="#e22829" r="76"/></g><path d="m74.26 54.9 8.2 8.21a50.94 50.94 0 0 1 -7.24 1.68c1.28-3.79 1.03-7.67-.96-9.89z" fill="url(#linear-gradient)"/><path d="m63.38 95.13c-5.84 1.36-6.86-6-1.57-7.26 6.3-1.45 5.74 6.28 1.57 7.26z" fill="url(#linear-gradient-2)"/><path d="m70.53 86.77a1.69 1.69 0 0 1 -3.13.88c-.02-2.22 2.89-2.46 3.13-.88z" fill="url(#linear-gradient-3)"/><path d="m67.18 72.26a31.27 31.27 0 0 0 -14.31 4.18c-3.45 2-7.49 5.23-8.5 10.11-2.26 11 9.87 16.13 18.78 16.71 10.3.68 20.6-2.89 25.49-8.36a13.11 13.11 0 0 0 3.58-8.57c-.02-10.93-14.02-14.97-25.04-14.07zm-13 21.55c-3-8.14 4.26-14.61 11.85-15.4 6.48-.67 11.32 2.59 12.75 6.82 4.79 14.16-20.03 20.77-24.57 8.58z" fill="url(#linear-gradient-4)"/><path d="m142.74 112.38a76.11 76.11 0 0 1 -49.74 37.71l-51.2-51.19a32.55 32.55 0 0 0 5.48 3.7c17.77 9.87 46.24 4.4 55.72-8.6a16.87 16.87 0 0 0 2.91-6.81c1.11-8.92-5.6-10.41-11.18-13.42 1.22-3.13 2-7.19 0-9.45l-.33-.32z" fill="url(#linear-gradient-5)"/><path d="m100.27 64.56c.08 1.26-.1 2.43-.06 3.33l-8.58-8.58c1.27.84 3.87 0 5.73.85a6 6 0 0 1 2.91 4.4z" fill="url(#linear-gradient-6)"/><path d="m150.56 90.78a75.31 75.31 0 0 1 -7.43 20.87l-42.37-42.37a2.48 2.48 0 0 0 1.74.34c2-.13 2.93-3 2.46-6.38a9.55 9.55 0 0 0 -10.24-8.15l-5.82-5.82c1.28 1.33 4.4.56 6 .56 7.73 0 15.61 6.31 15.43 15.39-.06 3.13-2.57 8.34 2.24 7.92 2.94-.26 3.7-5.52 3.35-9.9a20.71 20.71 0 0 0 -5-12.11z" fill="url(#linear-gradient-7)"/><g id="Icon" fill="#fff"><path d="m115.92 63.24c.35 4.38-.41 9.64-3.35 9.9-4.81.42-2.3-4.79-2.24-7.92.18-9.08-7.7-15.39-15.43-15.39-2.18 0-7.27 1.46-6.48-3.08.35-2 2.07-2 3.8-2.2 12.99-1.7 22.78 7.08 23.7 18.69z"/><path d="m94.68 73.79c5.58 3 12.29 4.5 11.18 13.42a16.87 16.87 0 0 1 -2.86 6.79c-9.43 13-37.9 18.45-55.67 8.58-6-3.31-12.13-8.16-11.18-17.81.82-8.31 6.5-14.75 12.07-20.23 5.32-5.24 10.93-9.33 18.56-11.22 8.28-2 10.73 4.74 8.5 11.44 4.79-.32 15-5.58 19.45-.44 1.93 2.28 1.17 6.34-.05 9.47zm-6 21.11a13.11 13.11 0 0 0 3.58-8.57c0-10.93-14-15-25-14.07a31.27 31.27 0 0 0 -14.31 4.18c-3.45 2-7.49 5.23-8.5 10.11-2.26 11 9.87 16.13 18.78 16.71 10.3.68 20.6-2.89 25.49-8.36z"/><path d="m105 63.24c.47 3.35-.5 6.25-2.46 6.38-3.25.21-2-2.2-2.23-5.06a6 6 0 0 0 -2.91-4.4c-2.54-1.17-6.48.85-6.48-2.64 0-2.59 2.28-2.32 3.58-2.42a9.58 9.58 0 0 1 10.5 8.14z"/><path d="m78.81 85.23c4.76 14.16-20.06 20.74-24.6 8.58-3-8.14 4.26-14.61 11.85-15.4 6.48-.67 11.32 2.59 12.75 6.82zm-11.41 2.42a1.69 1.69 0 0 0 3.13-.88c-.24-1.58-3.15-1.34-3.13.88zm-4 7.48c4.17-1 4.73-8.71-1.57-7.26-5.31 1.21-4.29 8.62 1.55 7.26z"/></g></g></g></g></svg>