<svg height="512" viewBox="0 0 152 152" width="512" xmlns="http://www.w3.org/2000/svg"><g id="Layer_2" data-name="Layer 2"><g id="Color"><g id="_25.Xing" data-name="25.Xing"><circle id="Background" cx="76" cy="76" fill="#00605e" r="76"/><g id="Icon" fill="#fff"><path d="m43.1 50.63h16.82l10.15 18a.4.4 0 0 1 0 .42l-13.51 22.58h-17a.42.42 0 0 1 -.36-.63l13.09-22a.43.43 0 0 0 0-.41l-9.55-17.34a.42.42 0 0 1 .36-.62z"/><path d="m102.43 116h-16.81l-17.62-31.35a.42.42 0 0 1 0-.42l27.44-48.23h17a.42.42 0 0 1 .36.63l-27.06 47.66a.43.43 0 0 0 0 .41l17.07 30.68a.42.42 0 0 1 -.38.62z"/></g></g></g></g></svg>