<?xml version="1.0" encoding="UTF-8" standalone="no"?>
<svg
   xmlns:dc="http://purl.org/dc/elements/1.1/"
   xmlns:cc="http://creativecommons.org/ns#"
   xmlns:rdf="http://www.w3.org/1999/02/22-rdf-syntax-ns#"
   xmlns:svg="http://www.w3.org/2000/svg"
   xmlns="http://www.w3.org/2000/svg"
   xmlns:sodipodi="http://sodipodi.sourceforge.net/DTD/sodipodi-0.dtd"
   xmlns:inkscape="http://www.inkscape.org/namespaces/inkscape"
   version="1.1"
   width="512"
   height="512"
   x="0"
   y="0"
   viewBox="0 0 39.5 39.5"
   style="enable-background:new 0 0 512 512"
   xml:space="preserve"
   class=""
   id="svg90"
   sodipodi:docname="checkbox-on.svg"
   inkscape:version="1.0.1 (3bc2e813f5, 2020-09-07)"><metadata
     id="metadata96"><rdf:RDF><cc:Work
         rdf:about=""><dc:format>image/svg+xml</dc:format><dc:type
           rdf:resource="http://purl.org/dc/dcmitype/StillImage" /></cc:Work></rdf:RDF></metadata><defs
     id="defs94" /><sodipodi:namedview
     pagecolor="#ffffff"
     bordercolor="#666666"
     borderopacity="1"
     objecttolerance="10"
     gridtolerance="10"
     guidetolerance="10"
     inkscape:pageopacity="0"
     inkscape:pageshadow="2"
     inkscape:window-width="1920"
     inkscape:window-height="1027"
     id="namedview92"
     showgrid="false"
     inkscape:zoom="1.6621094"
     inkscape:cx="256"
     inkscape:cy="231.9342"
     inkscape:window-x="-8"
     inkscape:window-y="-8"
     inkscape:window-maximized="1"
     inkscape:current-layer="g88" /><g
     id="g88">
<g
   id="g56"
   transform="translate(0,-3.3883666)">
	<path
   d="M 27.667,12.378 V 8.417 H 5 v 22.666 h 22.667 v -9.212 l 5,-5.108 v 16.82 c 0,0.663 -0.265,1.299 -0.731,1.77 -0.47,0.469 -1.104,0.73 -1.769,0.73 H 2.5 C 1.119,36.083 0,34.964 0,33.583 V 5.917 c 0,-1.381 1.119,-2.5 2.5,-2.5 h 27.667 c 1.381,0 2.5,1.119 2.5,2.5 V 7.27 l 2.547,-2.602 c 0.966,-0.986 2.55,-1.003 3.536,-0.038 0.984,0.966 1.003,2.549 0.038,3.536 L 18.949,28.435 c -0.467,0.478 -1.105,0.748 -1.773,0.752 -0.004,0 -0.009,0 -0.013,0 -0.663,0 -1.299,-0.265 -1.768,-0.732 l -8.19,-8.191 c -0.976,-0.978 -0.976,-2.561 0,-3.537 0.976,-0.976 2.559,-0.977 3.536,0 l 6.404,6.405 z"
   fill="#2b3f97"
   data-original="#000000"
   class=""
   id="path54" />
</g>
<g
   id="g58">
</g>
<g
   id="g60">
</g>
<g
   id="g62">
</g>
<g
   id="g64">
</g>
<g
   id="g66">
</g>
<g
   id="g68">
</g>
<g
   id="g70">
</g>
<g
   id="g72">
</g>
<g
   id="g74">
</g>
<g
   id="g76">
</g>
<g
   id="g78">
</g>
<g
   id="g80">
</g>
<g
   id="g82">
</g>
<g
   id="g84">
</g>
<g
   id="g86">
</g>
</g></svg>
