<?xml version="1.0" encoding="UTF-8" standalone="no"?>
<svg
   xmlns:dc="http://purl.org/dc/elements/1.1/"
   xmlns:cc="http://creativecommons.org/ns#"
   xmlns:rdf="http://www.w3.org/1999/02/22-rdf-syntax-ns#"
   xmlns:svg="http://www.w3.org/2000/svg"
   xmlns="http://www.w3.org/2000/svg"
   xmlns:sodipodi="http://sodipodi.sourceforge.net/DTD/sodipodi-0.dtd"
   xmlns:inkscape="http://www.inkscape.org/namespaces/inkscape"
   version="1.1"
   width="512"
   height="512"
   x="0"
   y="0"
   viewBox="0 0 39.5 39.5"
   style="enable-background:new 0 0 512 512"
   xml:space="preserve"
   class=""
   id="svg90"
   sodipodi:docname="radio_on.svg"
   inkscape:version="1.0.1 (3bc2e813f5, 2020-09-07)"><metadata
     id="metadata96"><rdf:RDF><cc:Work
         rdf:about=""><dc:format>image/svg+xml</dc:format><dc:type
           rdf:resource="http://purl.org/dc/dcmitype/StillImage" /><dc:title></dc:title></cc:Work></rdf:RDF></metadata><defs
     id="defs94" /><sodipodi:namedview
     pagecolor="#ffffff"
     bordercolor="#666666"
     borderopacity="1"
     objecttolerance="10"
     gridtolerance="10"
     guidetolerance="10"
     inkscape:pageopacity="0"
     inkscape:pageshadow="2"
     inkscape:window-width="1920"
     inkscape:window-height="1027"
     id="namedview92"
     showgrid="false"
     inkscape:zoom="1.6621094"
     inkscape:cx="140.18331"
     inkscape:cy="231.9342"
     inkscape:window-x="-8"
     inkscape:window-y="-8"
     inkscape:window-maximized="1"
     inkscape:current-layer="g88" /><g
     id="g88">

<g
   id="g58">
</g>
<g
   id="g60">
</g>
<g
   id="g62">
</g>
<g
   id="g64">
</g>
<g
   id="g66">
</g>
<g
   id="g68">
</g>
<g
   id="g70">
</g>
<g
   id="g72">
</g>
<g
   id="g74">
</g>
<g
   id="g76">
</g>
<g
   id="g78">
</g>
<g
   id="g80">
</g>
<g
   id="g82">
</g>
<g
   id="g84">
</g>
<g
   id="g86">
</g>
<path
   id="path355"
   style="fill:#2b3f97;fill-opacity:1;fill-rule:evenodd;stroke-width:1"
   d="M 212.38086 1.3984375 A 211.7791 211.7791 0 0 0 0.6015625 213.17773 A 211.7791 211.7791 0 0 0 212.38086 424.95703 A 211.7791 211.7791 0 0 0 424.16016 213.17773 A 211.7791 211.7791 0 0 0 212.38086 1.3984375 z M 212.22266 25.164062 A 188.01401 188.01401 0 0 1 212.38086 25.164062 A 188.01401 188.01401 0 0 1 400.39453 213.17773 A 188.01401 188.01401 0 0 1 212.38086 401.19141 A 188.01401 188.01401 0 0 1 24.367188 213.17773 A 188.01401 188.01401 0 0 1 212.22266 25.164062 z "
   transform="scale(0.07714844)" /><circle
   style="fill:#2b3f97;fill-opacity:1;stroke-width:0.0961299"
   id="path1201"
   cx="16.384851"
   cy="16.446329"
   r="11.572266" /></g></svg>
