<?xml version="1.0"?>
<svg xmlns="http://www.w3.org/2000/svg" xmlns:xlink="http://www.w3.org/1999/xlink" xmlns:svgjs="http://svgjs.com/svgjs" version="1.1" width="512" height="512" x="0" y="0" viewBox="0 0 152 152" style="enable-background:new 0 0 512 512" xml:space="preserve" class=""><g><linearGradient xmlns="http://www.w3.org/2000/svg" id="linear-gradient" gradientUnits="userSpaceOnUse" x1="22.26" x2="129.74" y1="22.26" y2="129.74"><stop stop-opacity="1" stop-color="#50ff01" offset="0"/><stop stop-opacity="1" stop-color="#00270f" offset="1"/></linearGradient><g xmlns="http://www.w3.org/2000/svg" id="Layer_2" data-name="Layer 2"><g id="_64.check" data-name="64.check"><circle id="background" cx="76" cy="76" fill="url(#linear-gradient)" r="76" data-original="url(#linear-gradient)" class=""/><path id="icon" d="m65.29 90.09 8.09-11.84q12.27-18 24.55-35.91c2.43-3.53 5.67-4 9.18-1.64 1.31.89 2.64 1.73 3.93 2.64 3.22 2.28 3.88 5.62 1.65 8.89q-13.11 19.26-26.28 38.49-6.41 9.35-12.74 18.71c-2.48 3.68-5.69 4.39-9.34 1.82q-11.73-8.25-23.33-16.69c-3.47-2.51-3.88-5.75-1.38-9.23 1-1.36 1.93-2.74 2.94-4.08 2.08-2.74 5.21-3.43 8.1-1.53 3.37 2.22 6.61 4.65 9.91 7z" fill="#ffffff" data-original="#ffffff" class=""/></g></g></g></svg>
