<svg id="Layer_1" enable-background="new 0 0 512 512" height="512" viewBox="0 0 512 512" width="512" xmlns="http://www.w3.org/2000/svg" xmlns:xlink="http://www.w3.org/1999/xlink"><linearGradient id="SVGID_1_" gradientUnits="userSpaceOnUse" x1="256" x2="256" y1="16" y2="496"><stop offset="0" stop-color="#db3a4b"/><stop offset="1" stop-color="#ab1f5f"/></linearGradient><linearGradient id="SVGID_2_" gradientUnits="userSpaceOnUse" x1="256" x2="256" y1="130.266" y2="381.735"><stop offset="0" stop-color="#eef3fa"/><stop offset="1" stop-color="#b5d2ee"/></linearGradient><g clip-rule="evenodd" fill-rule="evenodd"><circle cx="256" cy="256" fill="url(#SVGID_1_)" r="240"/><path d="m138.266 373.735c10.666 10.666 28.119 10.666 38.785 0l78.949-78.949 78.949 78.949c10.666 10.666 28.119 10.666 38.786 0 10.666-10.666 10.666-28.119 0-38.786l-78.949-78.949 78.949-78.949c10.666-10.666 10.666-28.119 0-38.786-10.666-10.666-28.119-10.666-38.786 0l-78.949 78.95-78.949-78.949c-10.666-10.666-28.119-10.666-38.786.001-10.666 10.666-10.666 28.119 0 38.785l78.949 78.948-78.95 78.949c-10.665 10.667-10.665 28.12.002 38.786z" fill="url(#SVGID_2_)"/></g></svg>