<svg id="Layer_1" height="512" viewBox="0 0 64 64" width="512" xmlns="http://www.w3.org/2000/svg" data-name="Layer 1"><path d="m5 53h12v9h-12z" fill="#b3b3b3"/><path d="m45 45h14v17h-14z" fill="#bfbfbf"/><path d="m24 33h16v29h-16z" fill="#ccc"/><path d="m32 40 1.545 3.292 3.455.528-2.5 2.562.59 3.618-3.09-1.708-3.09 1.708.59-3.618-2.5-2.562 3.455-.528z" fill="#ffe166"/><circle cx="32" cy="5" fill="#ffc77f" r="3"/><circle cx="32" cy="5" fill="#ffc77f" r="3"/><path d="m32 20 2 13h4l-2-15 .061-6.699 8.939-4.301-1.061-2.551-8.939 3.551h-6l-8.939-3.551-1.061 2.551 8.939 4.301.061 6.699-2 15h4z" fill="#7fa7e6"/><circle cx="52" cy="17" fill="#f0bb78" r="3"/><path d="m56 33v12h-8v-12h-3v-9a4 4 0 0 1 4-4h6a4 4 0 0 1 4 4v9z" fill="#789dd9"/><g fill="#6382b3"><path d="m51.5 35h1v10h-1z"/><path d="m47.5 26h1v7h-1z"/><path d="m55.5 26h1v7h-1z"/></g><circle cx="11" cy="25" fill="#ebb775" r="3"/><path d="m15 41v12h-8v-12h-3v-9a4 4 0 0 1 4-4h6a4 4 0 0 1 4 4v9z" fill="#7497d1"/><path d="m10.5 43h1v10h-1z" fill="#6382b3"/><path d="m6.5 34h1v7h-1z" fill="#6382b3"/><path d="m14.5 34h1v7h-1z" fill="#6382b3"/></svg>