<svg id="Layer_1" height="512" viewBox="-6 -6 36 36" width="512" xmlns="http://www.w3.org/2000/svg" xmlns:xlink="http://www.w3.org/1999/xlink"><linearGradient id="SVGID_1_" gradientTransform="matrix(1 0 0 -1 -618 -1026)" gradientUnits="userSpaceOnUse" x1="617.273" x2="642.729" y1="-1050.728" y2="-1025.272"><stop offset="0" stop-color="#09f"/><stop offset="1" stop-color="#009"/></linearGradient><circle cx="12" cy="12" fill="url(#SVGID_1_)" r="18"/><path d="m12 1.477c1.452 0 2.631 1.179 2.631 2.631s-1.179 2.63-2.631 2.63-2.631-1.178-2.631-2.631 1.179-2.63 2.631-2.63zm3.946 21.046h-7.892c-.726 0-1.315-.588-1.315-1.315s.59-1.315 1.315-1.315h1.315v-7.893h-1.315c-.726 0-1.315-.59-1.315-1.315s.59-1.315 1.315-1.315h5.262c.728 0 1.315.59 1.315 1.315v9.208h1.315c.728 0 1.315.588 1.315 1.315s-.587 1.315-1.315 1.315z" fill="#fff"/></svg>