<svg id="Icons" height="512" viewBox="0 0 60 60" width="512" xmlns="http://www.w3.org/2000/svg"><path d="m23.757 43.5a.5.5 0 0 1 -.281-.913l6.378-4.336-7.574 4.369a.5.5 0 0 1 -.528-.848l9.748-6.539-9.326 5.384a.5.5 0 0 1 -.52-.854l4.6-2.94-4.254 2.462a.5.5 0 0 1 -.528-.847l12.18-8.159-12.115 6.992a.5.5 0 0 1 -.524-.85l10.787-7.072-10.809 6.241a.5.5 0 0 1 -.517-.855l5.855-3.713-5.835 3.369a.5.5 0 0 1 -.524-.851l12.337-8.117-12.659 7.307a.5.5 0 0 1 -.522-.852l10.974-7.115-11.329 6.542a.5.5 0 0 1 -.518-.856l6.926-4.382-7.2 4.159a.5.5 0 0 1 -.519-.855l8.208-5.215-8.593 4.961a.5.5 0 0 1 -.523-.85l13.215-8.645-13.8 7.966a.5.5 0 0 1 -.519-.855l8.7-5.524-8.908 5.142a.5.5 0 0 1 -.516-.856l6.961-4.395-7.017 4.05a.5.5 0 0 1 -.514-.857l1.382-.857-1.258.726a.5.5 0 0 1 -.516-.855l6.688-4.225-6.575 3.8a.5.5 0 0 1 -.521-.853l10.521-6.806-10.363 5.977a.5.5 0 0 1 -.52-.853l7.773-4.974-7.437 4.297a.5.5 0 0 1 -.522-.852l9.226-6.007-8.732 5.042a.5.5 0 0 1 -.52-.853l3.458-2.2-2.838 1.643a.5.5 0 0 1 -.521-.852l5.306-3.432-4.5 2.6a.5.5 0 0 1 -.536-.844l9.047-6.281-7.665 4.425a.5.5 0 0 1 -.54-.84l6.209-4.419-4.152 2.4a.5.5 0 0 1 -.561-.824l3.646-2.889a.5.5 0 0 1 -.192-.928l5.059-2.924a.5.5 0 0 1 .56.824l-3.105 2.464 7.445-4.299a.5.5 0 0 1 .54.84l-6.221 4.421 8.86-5.115a.5.5 0 0 1 .535.843l-9.046 6.287 11.255-6.5a.5.5 0 0 1 .522.853l-5.309 3.43 6.374-3.683a.5.5 0 0 1 .518.854l-3.458 2.2 4.218-2.436a.5.5 0 0 1 .523.852l-9.228 6.008 10.253-5.919a.5.5 0 0 1 .52.853l-7.77 4.972 8.486-4.9a.5.5 0 0 1 .521.853l-10.516 6.8 11.272-6.503a.5.5 0 0 1 .517.855l-6.686 4.223 7.081-4.088a.5.5 0 0 1 .514.857l-1.381.857 1.534-.886a.5.5 0 0 1 .517.856l-6.981 4.4 7.225-4.168a.5.5 0 0 1 .518.855l-8.691 5.521 8.9-5.136a.5.5 0 0 1 .523.851l-13.219 8.644 13.48-7.775a.5.5 0 0 1 .518.855l-8.21 5.215 8.149-4.7a.5.5 0 0 1 .517.856l-6.914 4.363 6.727-3.883a.5.5 0 0 1 .522.853l-10.976 7.115 10.708-6.182a.5.5 0 0 1 .524.851l-12.34 8.12 11.875-6.863a.5.5 0 0 1 .518.855l-5.848 3.715 5.222-3.015a.5.5 0 0 1 .524.851l-10.787 7.071 9.827-5.677a.5.5 0 0 1 .529.848l-12.185 8.163 10.6-6.122a.5.5 0 0 1 .52.855l-4.608 2.942 2.891-1.669a.5.5 0 0 1 .528.848l-9.74 6.535 6.451-3.724a.5.5 0 0 1 .531.846l-6.373 4.335 4.34-2.5a.5.5 0 0 1 .545.836l-5.244 3.835 3.707-2.14a.5.5 0 0 1 .569.818l-3.605 2.985 2.438-1.406a.5.5 0 0 1 .614.775l-1.78 1.9.888-.513a.5.5 0 0 1 .711.626l-.419 1a.5.5 0 0 1 .358.244.5.5 0 0 1 -.184.684l-.887.511a.5.5 0 0 1 -.711-.627l.348-.834-2.543 1.459a.5.5 0 0 1 -.614-.775l1.781-1.9-4.638 2.678a.5.5 0 0 1 -.57-.817l3.6-2.984-6.6 3.808a.5.5 0 0 1 -.545-.836l5.243-3.834-8.1 4.677a.494.494 0 0 1 -.245.073z" fill="#f9c153"/><path d="m37.489 54.479a.5.5 0 0 1 -.25-.932l2.386-1.377a.5.5 0 1 1 .5.865l-2.386 1.377a.494.494 0 0 1 -.25.067z" fill="#c0daf0"/><path d="m30.6 59.443a.5.5 0 0 1 -.29-.907l.922-.658-2.407 1.389a.5.5 0 0 1 -.544-.837l3.319-2.42-4.6 2.659a.5.5 0 0 1 -.548-.834l6.149-4.56-7.33 4.232a.5.5 0 0 1 -.538-.842l5.367-3.775-5.9 3.41a.5.5 0 0 1 -.536-.843l6.18-4.307-6.417 3.706a.5.5 0 0 1 -.535-.844l6.5-4.5-8.072 4.656a.5.5 0 0 1 -.533-.845l6.6-4.538-7.051 4.07a.5.5 0 0 1 -.535-.843l5.048-3.5-3.135 1.809a.5.5 0 0 1 -.563-.823l4.649-3.716-5.45 3.147a.5.5 0 0 1 -.55-.829l1.731-1.285-.916.528a.5.5 0 0 1 -.564-.821l1.092-.885-.3.175a.5.5 0 0 1 -.584-.8l.141-.127-.054.031a.5.5 0 0 1 -.647-.737l.53-.689a.5.5 0 0 1 -.162-.924l1.657-.956a.5.5 0 0 1 .646.737l-.341.442 2.046-1.189a.5.5 0 0 1 .584.8l-.143.129 1.617-.933a.5.5 0 0 1 .564.821l-1.093.886 2.958-1.703a.5.5 0 0 1 .548.834l-1.727 1.282 3.666-2.116a.5.5 0 0 1 .562.823l-4.655 3.718 7.867-4.541a.5.5 0 0 1 .535.843l-5.042 3.5 7.5-4.333a.5.5 0 0 1 .533.844l-6.589 4.532 7.675-4.43a.5.5 0 0 1 .535.843l-6.5 4.5 6.062-3.5a.5.5 0 0 1 .536.843l-6.18 4.307 5.452-3.149a.5.5 0 0 1 .537.842l-5.377 3.779 5.151-2.974a.5.5 0 0 1 .548.834l-6.15 4.56 5.283-3.041a.5.5 0 0 1 .544.836l-3.329 2.421 3.153-1.824a.5.5 0 0 1 .54.84l-3.777 2.7a.512.512 0 0 1 .1.127.5.5 0 0 1 -.182.683l-5.537 3.2a.491.491 0 0 1 -.244.06z" fill="#c0daf0"/><path d="m26.607 50.47a.5.5 0 0 1 -.327-.878l.576-.5-2.268 1.308a.5.5 0 0 1 -.617-.772l1.4-1.519-3.771 2.181a.5.5 0 0 1 -.659-.722l1.391-1.968-2.022 1.171a.5.5 0 0 1 -.635-.752l.466-.562a.492.492 0 0 1 -.258-.219.5.5 0 0 1 .182-.682l1.657-.956a.5.5 0 0 1 .634.752l-.132.16 1.584-.914a.5.5 0 0 1 .658.721l-1.391 1.965 4.654-2.684a.5.5 0 0 1 .618.772l-1.405 1.519 3.97-2.291a.5.5 0 0 1 .577.81l-.576.5 2.269-1.31a.5.5 0 0 1 .648.735l-1.492 1.965 4.677-2.7a.5.5 0 0 1 .588.8l-.934.857 2.231-1.289a.5.5 0 0 1 .636.751l-1.182 1.429 1.352-.78a.5.5 0 1 1 .5.865l-3.759 2.167a.5.5 0 0 1 -.635-.751l1.182-1.429-3.778 2.18a.5.5 0 0 1 -.588-.8l.935-.858-2.874 1.658a.5.5 0 0 1 -.648-.735l1.491-1.965-4.675 2.7a.493.493 0 0 1 -.25.07z" fill="#b1cbdd"/><path d="m28.934 59.388a.5.5 0 0 1 -.351-.857l2.17-2.13-3.848 2.221a.5.5 0 0 1 -.584-.8l1.091-.978-1.739 1a.5.5 0 0 1 -.633-.754l1.024-1.22-1.522.879a.5.5 0 0 1 -.637-.749l.143-.175-.109.063a.5.5 0 0 1 -.747-.382l-.075-.736a.5.5 0 0 1 -.237-.933l.415-.24a.5.5 0 0 1 .747.382l.067.657 1.813-1.047a.5.5 0 0 1 .637.749l-.143.175 1.61-.93a.5.5 0 0 1 .633.754l-1.024 1.22 3.433-1.983a.5.5 0 0 1 .584.8l-1.092.98 3.1-1.792a.5.5 0 0 1 .6.789l-2.17 2.13 4.509-2.6a.5.5 0 0 1 .584.8l-1.823 1.653a.5.5 0 0 1 .137.92l-3.266 1.886a.5.5 0 0 1 -.585-.8l1.349-1.216-3.811 2.2a.493.493 0 0 1 -.25.064z" fill="#b1cbdd"/><g fill="#262626"><path d="m21.245 41.661c-1.985.61-2.866 3.349-.744 4.5a2.212 2.212 0 0 0 .122 4.017c-2.644 1.443-1.091 4.572 1.718 4.173 2.241 6.906 12.944 6.785 15.253-.006 2.462.265 4.5-3.038 1.917-4.419a2.316 2.316 0 0 0 .109-3.979 2.414 2.414 0 0 0 -.883-4.383c-.576-8.564 7.735-13.344 8.812-21.264 2.212-13.852-13.469-24.23-25.577-17.6a17.514 17.514 0 0 0 -9.7 15.472c-.406 9.088 9.373 14.335 8.973 23.489zm8.811 16.776a6.738 6.738 0 0 1 -6.107-4.094h12.17a6.5 6.5 0 0 1 -6.063 4.094zm9.144-6.775c.291 1.019-.361 2.3-1.569 1.995a.9.9 0 0 0 -1.157 0h-12.846a.888.888 0 0 0 -1.152 0c-1.7.1-2.459-2.679-.84-3.25 5.44.05 10.891.028 16.33.008a1.81 1.81 0 0 1 1.234 1.247zm-1.069-2.095q-7.914 0-15.83 0c-1.618.01-2.221-2.65-.62-3.077 5.447.066 10.906.027 16.354.014 1.379.463 1.822 2.903.1 3.063zm-.067-4.085h-15.184a1.674 1.674 0 0 1 -1.974-2.3c.461-.892 1.7-.664 2.541-.664h13.627c1.949-.6 3.232 2.648.994 2.964zm-10.805-17.82c1.86 1.7 3.17 1.762 5.033-.009.614.41 1.178.91 1.756 1.372a42.734 42.734 0 0 0 -1.767 12.457h-4.555a43.306 43.306 0 0 0 -1.788-12.764zm-7.138-22.962c11.3-9.126 28.294 1.9 25.991 15.822-1.041 7.8-9.2 12.594-8.8 20.937-1.214.036-2.372.015-3.577.02.117-5.222.57-10.714 2.947-15.442.372-.624-1.089-.537-1.362-.08a11.319 11.319 0 0 0 -.846 1.813c-1.322-1.458-3.008-.608-4.236.578a.614.614 0 0 0 -.07-.021c-1.462-1.422-2.85-1.931-4.484-.368a12.415 12.415 0 0 0 -1.018-2.274c-.313-.525-1.7 0-1.33.624a13.445 13.445 0 0 1 1.117 2.691.065.065 0 0 0 .018.053 42.162 42.162 0 0 1 1.789 12.429c-1.183.007-2.366-.018-3.551-.006.405-7.856-6.048-12.21-8.318-18.935a16.831 16.831 0 0 1 5.73-17.841z"/><path d="m17.735 17.95c-.12-6.608 5.544-12.529 12.207-12.4.839-.006 1.1-1.105.118-1.1a13.911 13.911 0 0 0 -13.795 13.6c-.006.776 1.466.578 1.47-.1z"/></g></svg>