<?xml version="1.0"?>
<svg xmlns="http://www.w3.org/2000/svg" xmlns:xlink="http://www.w3.org/1999/xlink" xmlns:svgjs="http://svgjs.com/svgjs" version="1.1" width="512" height="512" x="0" y="0" viewBox="0 0 32 32" style="enable-background:new 0 0 512 512" xml:space="preserve" class=""><g><path xmlns="http://www.w3.org/2000/svg" d="m19.72 31h-17.72a1 1 0 0 1 -1-1v-2a12.993 12.993 0 0 1 6.61-11.31 10 10 0 0 0 12.8-.01 11.475 11.475 0 0 1 1.46.96 7.989 7.989 0 0 0 -2.15 13.36z" fill="#f47c60" data-original="#000000" class=""/><circle xmlns="http://www.w3.org/2000/svg" cx="14" cy="9" r="8" fill="#f47c60" data-original="#000000" class=""/><path xmlns="http://www.w3.org/2000/svg" d="m25 19a5.94 5.94 0 0 0 -2.126.386 6.007 6.007 0 1 0 2.126-.386zm2 7h-4a1 1 0 0 1 0-2h4a1 1 0 0 1 0 2z" fill="#f47c60" data-original="#000000" class=""/></g></svg>
