<?xml version="1.0" encoding="iso-8859-1"?>
<!-- Generator: Adobe Illustrator 19.0.0, SVG Export Plug-In . SVG Version: 6.00 Build 0)  -->
<svg version="1.1" id="Capa_1" xmlns="http://www.w3.org/2000/svg" xmlns:xlink="http://www.w3.org/1999/xlink" x="0px" y="0px"
	 viewBox="0 0 512 512" style="enable-background:new 0 0 512 512;" xml:space="preserve">
<path style="fill:#E2A91B;" d="M407.799,113.939l-26.495,36.325l-13.944-10.175l-13.729-10.007l26.495-36.325
	c4.143-5.686,12.121-6.939,17.817-2.787l7.071,5.153c2.375,1.74,3.984,4.134,4.733,6.761
	C410.801,106.542,410.212,110.629,407.799,113.939z"/>
<path style="fill:#FCC938;" d="M407.799,113.939l-26.495,36.325l-13.944-10.175l24.924-34.173c4.058-5.564,11.793-6.883,17.461-3.03
	C410.801,106.542,410.212,110.629,407.799,113.939z"/>
<g>
	<path style="fill:#E2A91B;" d="M289.763,84.369V46.146c0-0.005-0.004-0.01-0.01-0.01h-67.51v38.235"/>
	<path style="fill:#E2A91B;" d="M158.842,129.801l-14.543,10.54l-13.196,9.568l-26.383-36.408
		c-4.134-5.705-2.862-13.673,2.843-17.806l7.089-5.134c1.768-1.282,3.741-2.039,5.761-2.31c4.498-0.617,9.194,1.206,12.046,5.143
		L158.842,129.801z"/>
</g>
<path style="fill:#FCC938;" d="M158.842,129.801l-14.543,10.54l-25.55-35.258c-3.834-5.284-3.02-12.522,1.665-16.834
	c4.499-0.617,9.194,1.206,12.046,5.143L158.842,129.801z"/>
<path style="fill:#E2A91B;" d="M467.354,293.034c0,112.965-88.622,205.235-200.128,211.071c-3.713,0.188-7.454,0.29-11.222,0.29
	c-116.735,0-211.361-94.626-211.361-211.361c0-116.726,94.626-211.352,211.361-211.352c3.769,0,7.51,0.102,11.222,0.29
	C378.732,87.81,467.354,180.078,467.354,293.034z"/>
<path style="fill:#FCC938;" d="M467.354,293.034c0,112.965-88.622,205.235-200.128,211.071
	C155.709,498.269,67.087,406,67.087,293.034c0-112.956,88.622-205.226,200.138-211.062
	C378.732,87.81,467.354,180.078,467.354,293.034z"/>
<path style="fill:#F2F2F2;" d="M421.578,293.036c0,91.444-74.13,165.585-165.575,165.585c-6.097,0-12.114-0.333-18.028-0.977
	c-82.969-8.979-147.556-79.251-147.556-164.608s64.587-155.618,147.555-164.597c5.916-0.645,11.932-0.977,18.028-0.977
	C347.447,127.462,421.578,201.592,421.578,293.036z"/>
<path style="fill:#DBDBDB;" d="M385.52,293.036c0,85.357-64.587,155.629-147.546,164.607
	c-82.968-8.979-147.555-79.25-147.555-164.607s64.587-155.618,147.555-164.597C320.933,137.419,385.52,207.679,385.52,293.036z"/>
<path style="fill:#E2A91B;" d="M290.721,293.036c0,14.794-9.262,27.431-22.292,32.419c-3.86,1.481-8.052,2.297-12.426,2.297
	c-19.178,0-34.718-15.539-34.718-34.718s15.539-34.718,34.718-34.718c4.374,0,8.566,0.816,12.426,2.297
	C281.459,265.605,290.721,278.243,290.721,293.036z"/>
<path style="fill:#FCC938;" d="M290.721,293.036c0,14.794-9.262,27.431-22.292,32.419c-13.03-4.988-22.292-17.626-22.292-32.419
	c0-14.794,9.262-27.431,22.292-32.419C281.459,265.605,290.721,278.243,290.721,293.036z"/>
<path style="fill:#E2A91B;" d="M324.946,22.649v8.445c0,8.304-6.732,15.046-15.046,15.046H202.106
	c-8.314,0-15.046-6.742-15.046-15.046v-8.445c0-8.304,6.732-15.046,15.046-15.046H309.9
	C318.214,7.603,324.946,14.345,324.946,22.649z"/>
<path style="fill:#FCC938;" d="M324.946,22.649v8.445c0,8.304-6.732,15.046-15.046,15.046h-70.281
	c-8.314,0-15.046-6.742-15.046-15.046v-8.445c0-8.304,6.732-15.046,15.046-15.046H309.9
	C318.214,7.603,324.946,14.345,324.946,22.649z"/>
<path d="M450.012,191.436c-1.953-3.719-6.554-5.15-10.266-3.2c-3.719,1.951-5.151,6.548-3.201,10.266
	c15.185,28.938,23.21,61.627,23.21,94.535c0,112.35-91.405,203.754-203.755,203.754S52.245,405.388,52.245,293.037
	S143.65,89.284,256,89.284c67.793,0,130.956,33.584,168.96,89.838c2.351,3.48,7.079,4.394,10.557,2.044
	c3.481-2.351,4.395-7.078,2.045-10.558c-9.702-14.36-20.944-27.327-33.403-38.78l9.198-12.609
	c3.363-4.605,4.729-10.244,3.847-15.881c-0.882-5.63-3.903-10.583-8.51-13.947l-5.479-3.996c-4.608-3.353-10.249-4.713-15.875-3.832
	c-5.638,0.883-10.589,3.909-13.939,8.514l-9.182,12.591c-20.677-11.757-43.241-20.117-66.852-24.65V53.74H309.9
	c12.489,0,22.65-10.161,22.65-22.65v-8.44C332.55,10.161,322.39,0,309.9,0H202.106c-12.489,0-22.65,10.16-22.65,22.65v8.44
	c0,12.489,10.16,22.65,22.65,22.65h12.532v24.227c-23.384,4.446-45.744,12.645-66.347,24.321l-9.098-12.553
	c-3.346-4.618-8.288-7.657-13.917-8.555c-5.632-0.899-11.272,0.449-15.895,3.8l-5.476,3.976
	c-9.529,6.905-11.665,20.277-4.758,29.809l9.158,12.631c-2.418,2.214-4.801,4.48-7.135,6.813
	c-41.356,41.356-64.133,96.342-64.133,154.83s22.776,113.473,64.133,154.83S197.513,512,256,512s113.473-22.776,154.83-64.133
	s64.133-96.342,64.133-154.83C474.963,257.677,466.335,222.544,450.012,191.436z M385.694,99.031
	c0.961-1.322,2.382-2.19,3.999-2.443c1.618-0.253,3.245,0.139,4.568,1.101l5.469,3.988c1.326,0.968,2.195,2.394,2.449,4.015
	c0.253,1.618-0.139,3.236-1.106,4.561l-8.488,11.636c-4.969-3.967-10.105-7.702-15.383-11.211L385.694,99.031z M194.664,31.09v-8.44
	c0-4.103,3.339-7.442,7.442-7.442H309.9c4.103,0,7.442,3.338,7.442,7.442v8.44c0,4.103-3.339,7.442-7.442,7.442h-20.147h-67.51
	h-20.136C198.003,38.532,194.664,35.193,194.664,31.09z M229.846,53.74h52.313v21.909c-8.622-1.034-17.353-1.573-26.16-1.573
	c-8.809,0-17.538,0.526-26.154,1.545V53.74z M111.461,109.839c-1.985-2.739-1.373-6.584,1.373-8.573l5.476-3.975
	c1.329-0.962,2.951-1.352,4.568-1.093c1.617,0.258,3.038,1.131,4.001,2.461l8.42,11.617c-5.272,3.497-10.404,7.241-15.392,11.213
	L111.461,109.839z"/>
<path d="M256,119.855c-95.494,0-173.183,77.689-173.183,173.183S160.507,466.221,256,466.221s173.183-77.689,173.183-173.183
	S351.494,119.855,256,119.855z M256,451.013c-87.108,0-157.975-70.867-157.975-157.975S168.892,135.063,256,135.063
	s157.975,70.867,157.975,157.975S343.108,451.013,256,451.013z"/>
<path d="M263.604,251.413v-58.413c0-4.199-3.404-7.604-7.604-7.604c-4.2,0-7.604,3.405-7.604,7.604v58.413
	c-19.719,3.594-34.718,20.885-34.718,41.624c0,12.514,5.494,24.318,15.074,32.385c3.213,2.705,8.008,2.293,10.714-0.919
	c2.705-3.212,2.293-8.009-0.919-10.714c-6.141-5.171-9.662-12.735-9.662-20.753c0-14.95,12.163-27.114,27.114-27.114
	c14.95,0,27.114,12.163,27.114,27.114c0,14.95-12.163,27.114-27.114,27.114c-4.2,0-7.604,3.405-7.604,7.604s3.404,7.604,7.604,7.604
	c23.337,0,42.322-18.986,42.322-42.322C298.322,272.298,283.323,255.007,263.604,251.413z"/>
<path d="M256,163.026c4.2,0,7.604-3.405,7.604-7.604v-9.352c0-4.199-3.404-7.604-7.604-7.604c-4.2,0-7.604,3.405-7.604,7.604v9.352
	C248.396,159.621,251.8,163.026,256,163.026z"/>
<path d="M256,423.049c-4.2,0-7.604,3.405-7.604,7.604v9.352c0,4.199,3.404,7.604,7.604,7.604c4.2,0,7.604-3.405,7.604-7.604v-9.352
	C263.604,426.453,260.2,423.049,256,423.049z"/>
<path d="M189.101,161.958c-2.099-3.637-6.752-4.883-10.387-2.783c-3.637,2.1-4.883,6.75-2.783,10.387l4.676,8.1
	c1.408,2.439,3.964,3.803,6.592,3.803c1.29,0,2.599-0.328,3.795-1.02c3.637-2.1,4.883-6.75,2.783-10.387L189.101,161.958z"/>
<path d="M331.392,408.414c-2.099-3.637-6.752-4.883-10.387-2.783c-3.637,2.1-4.883,6.75-2.783,10.387l4.676,8.1
	c1.408,2.439,3.964,3.803,6.592,3.803c1.29,0,2.599-0.328,3.795-1.02c3.637-2.1,4.883-6.75,2.783-10.387L331.392,408.414z"/>
<path d="M140.624,217.645l-8.1-4.676c-3.64-2.101-8.288-0.854-10.387,2.783c-2.1,3.637-0.854,8.287,2.783,10.387l8.1,4.676
	c1.198,0.691,2.505,1.02,3.795,1.02c2.628,0,5.184-1.365,6.592-3.803C145.507,224.395,144.26,219.744,140.624,217.645z"/>
<path d="M387.079,359.936l-8.099-4.676c-3.636-2.101-8.287-0.855-10.387,2.783c-2.1,3.637-0.854,8.287,2.783,10.387l8.099,4.676
	c1.197,0.691,2.505,1.02,3.795,1.02c2.628,0,5.183-1.364,6.592-3.803C391.963,366.686,390.716,362.036,387.079,359.936z"/>
<path d="M125.989,293.037c0-4.199-3.404-7.604-7.604-7.604h-9.352c-4.2,0-7.604,3.405-7.604,7.604s3.404,7.604,7.604,7.604h9.352
	C122.584,300.641,125.989,297.237,125.989,293.037z"/>
<path d="M386.01,293.037c0,4.199,3.404,7.604,7.604,7.604h9.353c4.2,0,7.604-3.405,7.604-7.604s-3.404-7.604-7.604-7.604h-9.353
	C389.415,285.433,386.01,288.838,386.01,293.037z"/>
<path d="M133.02,355.26l-8.1,4.676c-3.637,2.1-4.883,6.75-2.783,10.387c1.408,2.439,3.964,3.803,6.592,3.803
	c1.29,0,2.598-0.328,3.795-1.02l8.1-4.676c3.637-2.1,4.883-6.75,2.783-10.387C141.308,354.406,136.657,353.16,133.02,355.26z"/>
<path d="M368.593,228.033c1.409,2.439,3.964,3.803,6.592,3.803c1.29,0,2.599-0.329,3.795-1.02l8.099-4.676
	c3.637-2.1,4.883-6.75,2.783-10.387c-2.101-3.637-6.751-4.882-10.387-2.783l-8.099,4.676
	C367.74,219.745,366.493,224.396,368.593,228.033z"/>
<path d="M190.994,405.631c-3.639-2.101-8.288-0.854-10.387,2.783l-4.676,8.1c-2.1,3.637-0.854,8.287,2.783,10.387
	c1.198,0.691,2.505,1.02,3.795,1.02c2.628,0,5.184-1.365,6.592-3.803l4.676-8.1C195.877,412.381,194.631,407.73,190.994,405.631z"/>
<path d="M333.286,159.175c-3.639-2.101-8.288-0.854-10.387,2.783l-4.676,8.1c-2.1,3.637-0.854,8.287,2.783,10.387
	c1.198,0.691,2.505,1.02,3.795,1.02c2.628,0,5.184-1.365,6.592-3.803l4.676-8.1C338.168,165.925,336.921,161.274,333.286,159.175z"
	/>
<g>
</g>
<g>
</g>
<g>
</g>
<g>
</g>
<g>
</g>
<g>
</g>
<g>
</g>
<g>
</g>
<g>
</g>
<g>
</g>
<g>
</g>
<g>
</g>
<g>
</g>
<g>
</g>
<g>
</g>
</svg>
