<svg height="512" viewBox="0 0 64 64" width="512" xmlns="http://www.w3.org/2000/svg" xmlns:xlink="http://www.w3.org/1999/xlink"><linearGradient id="linear-gradient" gradientUnits="userSpaceOnUse" x1="3.4" x2="60.6" y1="32" y2="32"><stop offset="0" stop-color="#5bb4f6"/><stop offset=".61" stop-color="#2191e5"/><stop offset="1" stop-color="#007edb"/></linearGradient><g id="Layer_42" data-name="Layer 42"><path d="m50 3.4h-36a10.62 10.62 0 0 0 -10.6 10.6v36a10.62 10.62 0 0 0 10.6 10.6h36a10.62 10.62 0 0 0 10.6-10.6v-36a10.62 10.62 0 0 0 -10.6-10.6zm-29.34 15.28 8.34-8.29a4.27 4.27 0 0 1 6 0l8.28 8.37a4.21 4.21 0 0 1 -3 7.18 4.17 4.17 0 0 1 -3-1.25l-1.15-1.16v10.36a4.22 4.22 0 0 1 -4.22 4.19 4.2 4.2 0 0 1 -4.2-4.23v-10.36l-1.11 1.18a4.09 4.09 0 0 1 -3 1.22 4.16 4.16 0 0 1 -3-1.24 4.21 4.21 0 0 1 -1.22-3 4.17 4.17 0 0 1 1.28-2.97zm32.19 24.32a7.89 7.89 0 0 1 -7.85 7.87h-26a7.89 7.89 0 0 1 -7.85-7.87v-3.47a4.25 4.25 0 1 1 8.5 0v2.83h24.7v-2.83a4.25 4.25 0 1 1 8.5 0z" fill="url(#linear-gradient)"/></g></svg>